<svg xmlns="http://www.w3.org/2000/svg" style="display: none;">
  <symbol id="add_circle" viewBox="0 -960 960 960">
    <path d="M440-440v120q0 17 11.5 28.5T480-280q17 0 28.5-11.5T520-320v-120h120q17 0 28.5-11.5T680-480q0-17-11.5-28.5T640-520H520v-120q0-17-11.5-28.5T480-680q-17 0-28.5 11.5T440-640v120H320q-17 0-28.5 11.5T280-480q0 17 11.5 28.5T320-440h120Zm40 360q-83 0-156-31.5T197-197q-54-54-85.5-127T80-480q0-83 31.5-156T197-763q54-54 127-85.5T480-880q83 0 156 31.5T763-763q54 54 85.5 127T880-480q0 83-31.5 156T763-197q-54 54-127 85.5T480-80Zm0-80q134 0 227-93t93-227q0-134-93-227t-227-93q-134 0-227 93t-93 227q0 134 93 227t227 93Zm0-320Z"/>
  </symbol>
  <symbol id="analytics" viewBox="0 -960 960 960">
    <path d="M291.5-468.5Q280-457 280-440v120q0 17 11.5 28.5T320-280q17 0 28.5-11.5T360-320v-120q0-17-11.5-28.5T320-480q-17 0-28.5 11.5Zm320-200Q600-657 600-640v320q0 17 11.5 28.5T640-280q17 0 28.5-11.5T680-320v-320q0-17-11.5-28.5T640-680q-17 0-28.5 11.5Zm-160 280Q440-377 440-360v40q0 17 11.5 28.5T480-280q17 0 28.5-11.5T520-320v-40q0-17-11.5-28.5T480-400q-17 0-28.5 11.5ZM200-120q-33 0-56.5-23.5T120-200v-560q0-33 23.5-56.5T200-840h560q33 0 56.5 23.5T840-760v560q0 33-23.5 56.5T760-120H200Zm0-80h560v-560H200v560Zm0-560v560-560Zm308.5 268.5Q520-503 520-520t-11.5-28.5Q497-560 480-560t-28.5 11.5Q440-537 440-520t11.5 28.5Q463-480 480-480t28.5-11.5Z"/>
  </symbol>
  <symbol id="balance" viewBox="0 -960 960 960">
    <path d="M120-120q-17 0-28.5-11.5T80-160q0-17 11.5-28.5T120-200h320v-447q-26-9-45-28t-28-45H240l110 258q5 11 6 22.5t-1 23.5q-9 46-49.5 71T220-320q-45 0-85.5-25T85-416q-2-12-1-23.5t6-22.5l110-258h-40q-17 0-28.5-11.5T120-760q0-17 11.5-28.5T160-800h207q12-35 43-57.5t70-22.5q39 0 70 22.5t43 57.5h207q17 0 28.5 11.5T840-760q0 17-11.5 28.5T800-720h-40l110 258q5 11 6 22.5t-1 23.5q-9 46-49.5 71T740-320q-45 0-85.5-25T605-416q-2-12-1-23.5t6-22.5l110-258H593q-9 26-28 45t-45 28v447h320q17 0 28.5 11.5T880-160q0 17-11.5 28.5T840-120H120Zm545-320h150l-75-174-75 174Zm-520 0h150l-75-174-75 174Zm335-280q17 0 28.5-11.5T520-760q0-17-11.5-28.5T480-800q-17 0-28.5 11.5T440-760q0 17 11.5 28.5T480-720Z"/>
  </symbol>
  <symbol id="bolt" viewBox="0 -960 960 960">
    <path d="m422-232 207-248H469l29-227-185 267h139l-30 208Zm-62-128H236q-24 0-35.5-21.5T203-423l299-430q10-14 26-19.5t33 .5q17 6 25 21t6 32l-32 259h155q26 0 36.5 23t-6.5 43L416-100q-11 13-27 17t-31-3q-15-7-23.5-21.5T328-139l32-221Zm111-110Z"/>
  </symbol>
  <symbol id="check" viewBox="0 -960 960 960">
    <path d="m382-354 339-339q12-12 28-12t28 12q12 12 12 28.5T777-636L410-268q-12 12-28 12t-28-12L182-440q-12-12-11.5-28.5T183-497q12-12 28.5-12t28.5 12l142 143Z"/>
  </symbol>
  <symbol id="check_circle" viewBox="0 -960 960 960">
    <path d="m424-408-86-86q-11-11-28-11t-28 11q-11 11-11 28t11 28l114 114q12 12 28 12t28-12l226-226q11-11 11-28t-11-28q-11-11-28-11t-28 11L424-408Zm56 328q-83 0-156-31.5T197-197q-54-54-85.5-127T80-480q0-83 31.5-156T197-763q54-54 127-85.5T480-880q83 0 156 31.5T763-763q54 54 85.5 127T880-480q0 83-31.5 156T763-197q-54 54-127 85.5T480-80Zm0-80q134 0 227-93t93-227q0-134-93-227t-227-93q-134 0-227 93t-93 227q0 134 93 227t227 93Zm0-320Z"/>
  </symbol>
  <symbol id="chevron_right" viewBox="0 -960 960 960">
    <path d="M504-480 348-636q-11-11-11-28t11-28q11-11 28-11t28 11l184 184q6 6 8.5 13t2.5 15q0 8-2.5 15t-8.5 13L404-268q-11 11-28 11t-28-11q-11-11-11-28t11-28l156-156Z"/>
  </symbol>
  <symbol id="close" viewBox="0 -960 960 960">
    <path d="M480-424 284-228q-11 11-28 11t-28-11q-11-11-11-28t11-28l196-196-196-196q-11-11-11-28t11-28q11-11 28-11t28 11l196 196 196-196q11-11 28-11t28 11q11 11 11 28t-11 28L536-480l196 196q11 11 11 28t-11 28q-11 11-28 11t-28-11L480-424Z"/>
  </symbol>
  <symbol id="dark_mode" viewBox="0 -960 960 960">
    <path d="M480-120q-151 0-255.5-104.5T120-480q0-138 90-239.5T440-838q13-2 23 3.5t16 14.5q6 9 6.5 21t-7.5 23q-17 26-25.5 55t-8.5 61q0 90 63 153t153 63q31 0 61.5-9t54.5-25q11-7 22.5-6.5T819-479q10 5 15.5 15t3.5 24q-14 138-117.5 229T480-120Zm0-80q88 0 158-48.5T740-375q-20 5-40 8t-40 3q-123 0-209.5-86.5T364-660q0-20 3-40t8-40q-78 32-126.5 102T200-480q0 116 82 198t198 82Zm-10-270Z"/>
  </symbol>
  <symbol id="do_not_disturb_on" viewBox="0 -960 960 960">
    <path d="M320-440h320q17 0 28.5-11.5T680-480q0-17-11.5-28.5T640-520H320q-17 0-28.5 11.5T280-480q0 17 11.5 28.5T320-440ZM480-80q-83 0-156-31.5T197-197q-54-54-85.5-127T80-480q0-83 31.5-156T197-763q54-54 127-85.5T480-880q83 0 156 31.5T763-763q54 54 85.5 127T880-480q0 83-31.5 156T763-197q-54 54-127 85.5T480-80Zm0-80q134 0 227-93t93-227q0-134-93-227t-227-93q-134 0-227 93t-93 227q0 134 93 227t227 93Zm0-320Z"/>
  </symbol>
  <symbol id="history" viewBox="0 -960 960 960">
    <path d="M480-120q-126 0-223-76.5T131-392q-4-15 6-27.5t27-14.5q16-2 29 6t18 24q24 90 99 147t170 57q117 0 198.5-81.5T760-480q0-117-81.5-198.5T480-760q-69 0-129 32t-101 88h70q17 0 28.5 11.5T360-600q0 17-11.5 28.5T320-560H160q-17 0-28.5-11.5T120-600v-160q0-17 11.5-28.5T160-800q17 0 28.5 11.5T200-760v54q51-64 124.5-99T480-840q75 0 140.5 28.5t114 77q48.5 48.5 77 114T840-480q0 75-28.5 140.5t-77 114q-48.5 48.5-114 77T480-120Zm40-376 100 100q11 11 11 28t-11 28q-11 11-28 11t-28-11L452-452q-6-6-9-13.5t-3-15.5v-159q0-17 11.5-28.5T480-680q17 0 28.5 11.5T520-640v144Z"/>
  </symbol>
  <symbol id="light_mode" viewBox="0 -960 960 960">
    <path d="M565-395q35-35 35-85t-35-85q-35-35-85-35t-85 35q-35 35-35 85t35 85q35 35 85 35t85-35Zm-226.5 56.5Q280-397 280-480t58.5-141.5Q397-680 480-680t141.5 58.5Q680-563 680-480t-58.5 141.5Q563-280 480-280t-141.5-58.5ZM80-440q-17 0-28.5-11.5T40-480q0-17 11.5-28.5T80-520h80q17 0 28.5 11.5T200-480q0 17-11.5 28.5T160-440H80Zm720 0q-17 0-28.5-11.5T760-480q0-17 11.5-28.5T800-520h80q17 0 28.5 11.5T920-480q0 17-11.5 28.5T880-440h-80ZM451.5-771.5Q440-783 440-800v-80q0-17 11.5-28.5T480-920q17 0 28.5 11.5T520-880v80q0 17-11.5 28.5T480-760q-17 0-28.5-11.5Zm0 720Q440-63 440-80v-80q0-17 11.5-28.5T480-200q17 0 28.5 11.5T520-160v80q0 17-11.5 28.5T480-40q-17 0-28.5-11.5ZM226-678l-43-42q-12-11-11.5-28t11.5-29q12-12 29-12t28 12l42 43q11 12 11 28t-11 28q-11 12-27.5 11.5T226-678Zm494 495-42-43q-11-12-11-28.5t11-27.5q11-12 27.5-11.5T734-282l43 42q12 11 11.5 28T777-183q-12 12-29 12t-28-12Zm-42-495q-12-11-11.5-27.5T678-734l42-43q11-12 28-11.5t29 11.5q12 12 12 29t-12 28l-43 42q-12 11-28 11t-28-11ZM183-183q-12-12-12-29t12-28l43-42q12-11 28.5-11t27.5 11q12 11 11.5 27.5T282-226l-42 43q-11 12-28 11.5T183-183Zm297-297Z"/>
  </symbol>
  <symbol id="link" viewBox="0 -960 960 960">
    <path d="M280-280q-83 0-141.5-58.5T80-480q0-83 58.5-141.5T280-680h120q17 0 28.5 11.5T440-640q0 17-11.5 28.5T400-600H280q-50 0-85 35t-35 85q0 50 35 85t85 35h120q17 0 28.5 11.5T440-320q0 17-11.5 28.5T400-280H280Zm80-160q-17 0-28.5-11.5T320-480q0-17 11.5-28.5T360-520h240q17 0 28.5 11.5T640-480q0 17-11.5 28.5T600-440H360Zm200 160q-17 0-28.5-11.5T520-320q0-17 11.5-28.5T560-360h120q50 0 85-35t35-85q0-50-35-85t-85-35H560q-17 0-28.5-11.5T520-640q0-17 11.5-28.5T560-680h120q83 0 141.5 58.5T880-480q0 83-58.5 141.5T680-280H560Z"/>
  </symbol>
  <symbol id="menu" viewBox="0 -960 960 960">
    <path d="M160-240q-17 0-28.5-11.5T120-280q0-17 11.5-28.5T160-320h640q17 0 28.5 11.5T840-280q0 17-11.5 28.5T800-240H160Zm0-200q-17 0-28.5-11.5T120-480q0-17 11.5-28.5T160-520h640q17 0 28.5 11.5T840-480q0 17-11.5 28.5T800-440H160Zm0-200q-17 0-28.5-11.5T120-680q0-17 11.5-28.5T160-720h640q17 0 28.5 11.5T840-680q0 17-11.5 28.5T800-640H160Z"/>
  </symbol>
  <symbol id="payments" viewBox="0 -960 960 960">
    <path d="M560-440q-50 0-85-35t-35-85q0-50 35-85t85-35q50 0 85 35t35 85q0 50-35 85t-85 35ZM280-320q-33 0-56.5-23.5T200-400v-320q0-33 23.5-56.5T280-800h560q33 0 56.5 23.5T920-720v320q0 33-23.5 56.5T840-320H280Zm80-80h400q0-33 23.5-56.5T840-480v-160q-33 0-56.5-23.5T760-720H360q0 33-23.5 56.5T280-640v160q33 0 56.5 23.5T360-400Zm400 240H120q-33 0-56.5-23.5T40-240v-400q0-17 11.5-28.5T80-680q17 0 28.5 11.5T120-640v400h640q17 0 28.5 11.5T800-200q0 17-11.5 28.5T760-160ZM280-400v-320 320Z"/>
  </symbol>
  <symbol id="pets" viewBox="0 -960 960 960">
    <path d="M180-475q-42 0-71-29t-29-71q0-42 29-71t71-29q42 0 71 29t29 71q0 42-29 71t-71 29Zm109-189q-29-29-29-71t29-71q29-29 71-29t71 29q29 29 29 71t-29 71q-29 29-71 29t-71-29Zm240 0q-29-29-29-71t29-71q29-29 71-29t71 29q29 29 29 71t-29 71q-29 29-71 29t-71-29Zm251 189q-42 0-71-29t-29-71q0-42 29-71t71-29q42 0 71 29t29 71q0 42-29 71t-71 29ZM266-75q-45 0-75.5-34.5T160-191q0-52 35.5-91t70.5-77q29-31 50-67.5t50-68.5q22-26 51-43t63-17q34 0 63 16t51 42q28 32 49.5 69t50.5 69q35 38 70.5 77t35.5 91q0 47-30.5 81.5T694-75q-54 0-107-9t-107-9q-54 0-107 9t-107 9Z"/>
  </symbol>
  <symbol id="price_check" viewBox="0 -960 960 960">
    <path d="m558-233 198-198q11-11 28-11t28 11q11 11 11 28t-11 28L586-149q-12 12-28 12t-28-12L416-263q-11-11-11-28t11-28q11-11 28-11t28 11l86 86ZM260-401h-60q-17 0-28.5-11.5T160-441q0-17 11.5-28.5T200-481h160v-80H200q-17 0-28.5-11.5T160-601v-160q0-17 11.5-28.5T200-801h60q0-17 11.5-28.5T300-841q17 0 28.5 11.5T340-801h60q17 0 28.5 11.5T440-761q0 17-11.5 28.5T400-721H240v80h160q17 0 28.5 11.5T440-601v160q0 17-11.5 28.5T400-401h-60q0 17-11.5 28.5T300-361q-17 0-28.5-11.5T260-401Z"/>
  </symbol>
  <symbol id="replay" viewBox="0 -960 960 960">
    <path d="M339.5-108.5q-65.5-28.5-114-77t-77-114Q120-365 120-440q0-17 11.5-28.5T160-480q17 0 28.5 11.5T200-440q0 117 81.5 198.5T480-160q117 0 198.5-81.5T760-440q0-117-81.5-198.5T480-720h-6l34 34q12 12 11.5 28T508-630q-12 12-28.5 12.5T451-629L348-732q-12-12-12-28t12-28l103-103q12-12 28.5-11.5T508-890q11 12 11.5 28T508-834l-34 34h6q75 0 140.5 28.5t114 77q48.5 48.5 77 114T840-440q0 75-28.5 140.5t-77 114q-48.5 48.5-114 77T480-80q-75 0-140.5-28.5Z"/>
  </symbol>
  <symbol id="schedule" viewBox="0 -960 960 960">
    <path d="M520-496v-144q0-17-11.5-28.5T480-680q-17 0-28.5 11.5T440-640v159q0 8 3 15.5t9 13.5l132 132q11 11 28 11t28-11q11-11 11-28t-11-28L520-496ZM480-80q-83 0-156-31.5T197-197q-54-54-85.5-127T80-480q0-83 31.5-156T197-763q54-54 127-85.5T480-880q83 0 156 31.5T763-763q54 54 85.5 127T880-480q0 83-31.5 156T763-197q-54 54-127 85.5T480-80Zm0-400Zm0 320q133 0 226.5-93.5T800-480q0-133-93.5-226.5T480-800q-133 0-226.5 93.5T160-480q0 133 93.5 226.5T480-160Z"/>
  </symbol>
  <symbol id="security" viewBox="0 -960 960 960">
    <path d="M480-164q97-30 162-118.5T718-480H480v-315l-240 90v207q0 7 2 18h238v316Zm-13 79q-6-1-12-3-135-45-215-166.5T160-516v-189q0-25 14.5-45t37.5-29l240-90q14-5 28-5t28 5l240 90q23 9 37.5 29t14.5 45v189q0 140-80 261.5T505-88q-6 2-12 3t-13 1q-7 0-13-1Z"/>
  </symbol>
  <symbol id="share" viewBox="0 -960 960 960">
    <path d="M680-80q-50 0-85-35t-35-85q0-6 3-28L282-392q-16 15-37 23.5t-45 8.5q-50 0-85-35t-35-85q0-50 35-85t85-35q24 0 45 8.5t37 23.5l281-164q-2-7-2.5-13.5T560-760q0-50 35-85t85-35q50 0 85 35t35 85q0 50-35 85t-85 35q-24 0-45-8.5T598-672L317-508q2 7 2.5 13.5t.5 14.5q0 8-.5 14.5T317-452l281 164q16-15 37-23.5t45-8.5q50 0 85 35t35 85q0 50-35 85t-85 35Zm0-80q17 0 28.5-11.5T720-200q0-17-11.5-28.5T680-240q-17 0-28.5 11.5T640-200q0 17 11.5 28.5T680-160ZM200-440q17 0 28.5-11.5T240-480q0-17-11.5-28.5T200-520q-17 0-28.5 11.5T160-480q0 17 11.5 28.5T200-440Zm508.5-291.5Q720-743 720-760t-11.5-28.5Q697-800 680-800t-28.5 11.5Q640-777 640-760t11.5 28.5Q663-720 680-720t28.5-11.5ZM680-200ZM200-480Zm480-280Z"/>
  </symbol>
  <symbol id="social_leaderboard" viewBox="0 -960 960 960">
    <path d="M607.5-212.5Q660-265 660-340t-52.5-127.5Q555-520 480-520t-127.5 52.5Q300-415 300-340t52.5 127.5Q405-160 480-160t127.5-52.5ZM363-572q20-11 42.5-17.5T451-598L350-800H250l113 228ZM256-208q-17-29-26.5-62.5T220-340q0-36 9.5-69.5T256-472q-42 14-69 49.5T160-330q0 47 27 82.5t69 49.5Zm448 0q42-14 69-49.5t27-82.5q0-47-27-82.5T704-472q17 29 26.5 62.5T740-340q0 36-9.5 69.5T704-208ZM403.5-91.5Q367-103 336-123q-9 2-18 2.5t-19 .5q-91 0-155-64T80-339q0-87 58-149t143-69L149-822q-10-20 1.5-39t34.5-19h166q23 0 41.5 12t29.5 32l58 116 58-116q11-20 29.5-32t41.5-12h166q23 0 34.5 19t1.5 39L680-559q85 8 142.5 70T880-340q0 92-64 156t-156 64q-9 0-18.5-.5T623-123q-31 20-67 31.5T480-80q-40 0-76.5-11.5ZM480-340ZM363-572 250-800l113 228Zm117 286-49 37q-6 5-12 .5t-4-11.5l19-61-49-35q-6-5-4-11.5t10-6.5h60l19-65q2-7 10-7t10 7l19 65h60q8 0 10 6.5t-4 11.5l-49 35 19 61q2 7-4 11.5t-12-.5l-49-37Zm117-286 114-228H610l-85 170 19 38q14 4 27 8.5t26 11.5Z"/>
  </symbol>
  <symbol id="star" viewBox="0 -960 960 960">
    <path d="m354-287 126-76 126 77-33-144 111-96-146-13-58-136-58 135-146 13 111 97-33 143Zm126 18L314-169q-11 7-23 6t-21-8q-9-7-14-17.5t-2-23.5l44-189-147-127q-10-9-12.5-20.5T140-571q4-11 12-18t22-9l194-17 75-178q5-12 15.5-18t21.5-6q11 0 21.5-6t15.5 18l75 178 194 17q14 2 22 9t12 18q4 11 1.5 22.5T809-528L662-401l44 189q3 13-2 23.5T690-171q-9 7-21 8t-23-6L480-269Zm0-201Z"/>
  </symbol>
  <symbol id="verified" viewBox="0 -960 960 960">
    <path d="m438-452-58-57q-11-11-27.5-11T324-508q-11 11-11 28t11 28l86 86q12 12 28 12t28-12l170-170q12-12 11.5-28T636-592q-12-12-28.5-12.5T579-593L438-452ZM326-90l-58-98-110-24q-15-3-24-15.5t-7-27.5l11-113-75-86q-10-11-10-26t10-26l75-86-11-113q-2-15 7-27.5t24-15.5l110-24 58-98q8-13 22-17.5t28 1.5l104 44 104-44q14-6 28-1.5t22 17.5l58 98 110 24q15 3 24 15.5t7 27.5l-11 113 75 86q10 11 10 26t-10 26l-75 86 11 113q2 15-7 27.5T802-212l-110 24-58 98q-8 13-22 17.5T584-74l-104-44-104 44q-14 6-28 1.5T326-90Zm52-72 102-44 104 44 56-96 110-26-10-112 74-84-74-86 10-112-110-24-58-96-102 44-104-44-56 96-110 24 10 112-74 86 74 84-10 114 110 24 58 96Zm102-318Z"/>
  </symbol>
</svg>
